<svg xmlns="http://www.w3.org/2000/svg" version="1.0" preserveAspectRatio="xMidYMid meet" viewBox="62.33 108.98 377.97 282.76">

<g transform="translate(0.000000,500.000000) scale(0.100000,-0.100000)" fill="#000000" stroke="none">
<path d="M1039 3878 c26 -46 199 -338 254 -430 l47 -77 0 -190 0 -191 60 0 60 0 0 181 0 181 53 89 c28 49 66 113 83 142 17 28 60 102 95 162 36 61 73 122 83 138 l18 27 -68 0 c-76 0 -64 10 -125 -98 -19 -32 -63 -110 -135 -235 -63 -109 -53 -110 -121 6 -33 56 -89 152 -124 214 l-64 112 -67 1 -68 0 19 -32z"/>
<path d="M1983 3656 c-98 -24 -175 -90 -226 -195 -26 -56 -31 -76 -31 -142 0 -68 4 -86 33 -142 39 -78 97 -136 171 -174 47 -23 67 -27 140 -28 75 0 93 4 150 31 75 36 141 98 172 163 27 55 36 178 18 250 -26 108 -132 210 -248 237 -69 16 -110 16 -179 0z m163 -111 c129 -38 194 -169 152 -309 -15 -49 -86 -120 -135 -137 -19 -6 -67 -9 -106 -7 -60 3 -79 8 -113 32 -66 48 -96 98 -102 172 -9 115 55 217 155 248 62 19 89 19 149 1z"/>
<path d="M3565 3651 c-44 -11 -83 -39 -111 -80 l-24 -36 0 58 0 57 -55 0 -55 0 0 -330 0 -330 55 0 55 0 0 203 c0 253 13 290 113 332 20 8 50 15 67 15 l30 0 0 60 c0 66 -3 68 -75 51z"/>
<path d="M2552 3408 c3 -232 4 -245 27 -296 69 -152 296 -190 412 -68 33 35 39 33 39 -14 l0 -40 55 0 55 0 0 330 0 330 -55 0 -55 0 0 -192 c0 -106 -5 -211 -11 -233 -25 -93 -90 -145 -182 -145 -74 0 -112 16 -143 62 l-29 41 -3 234 -3 233 -55 0 -55 0 3 -242z"/>
<path d="M653 2285 c-71 -49 -3 -157 80 -126 51 19 62 77 22 116 -28 28 -70 32 -102 10z"/>
<path d="M1170 2035 c-25 -8 -59 -28 -75 -45 -37 -39 -45 -38 -45 5 l0 35 -55 0 -55 0 0 -330 0 -330 54 0 55 0 3 228 c3 218 4 229 26 264 50 79 150 106 224 60 56 -35 61 -60 66 -319 l4 -233 54 0 54 0 0 218 c0 214 1 219 25 269 43 85 140 113 219 64 63 -40 66 -52 66 -316 l0 -236 58 3 57 3 0 240 0 240 -28 57 c-36 74 -86 113 -162 129 -89 18 -164 0 -222 -54 l-44 -40 -37 35 c-20 20 -47 41 -59 47 -37 19 -134 22 -183 6z"/>
<path d="M2285 2037 c-97 -25 -177 -95 -224 -197 -21 -45 -25 -70 -25 -141 0 -78 3 -93 33 -152 39 -78 87 -126 161 -164 47 -24 67 -28 135 -28 67 0 89 4 137 28 31 15 68 41 82 58 14 16 27 29 30 29 3 0 6 -22 6 -50 l0 -50 55 0 55 0 0 330 0 330 -55 0 -55 0 0 -54 0 -55 -50 49 c-70 69 -179 94 -285 67z m207 -126 c55 -24 93 -65 113 -120 33 -94 10 -200 -57 -262 -54 -50 -87 -63 -164 -63 -62 -1 -77 3 -119 29 -27 17 -63 50 -80 74 -26 37 -30 53 -33 120 -3 63 0 85 16 117 60 117 196 161 324 105z"/>
<path d="M3123 2036 c-62 -15 -91 -34 -150 -93 -70 -69 -88 -119 -88 -238 0 -81 4 -109 22 -147 72 -156 261 -237 417 -178 33 13 79 41 103 63 l43 40 0 -59 c0 -33 -5 -76 -11 -97 -13 -48 -61 -103 -108 -124 -48 -21 -173 -21 -222 0 -38 17 -99 71 -99 88 0 6 -22 -2 -50 -17 -27 -15 -50 -30 -50 -34 0 -3 11 -21 24 -38 38 -52 106 -91 191 -109 175 -38 344 31 408 167 21 43 22 62 25 408 l3 362 -55 0 -56 0 0 -51 0 -51 -49 41 c-27 23 -66 48 -86 57 -51 21 -150 26 -212 10z m215 -118 c51 -24 107 -94 123 -152 34 -127 -50 -269 -178 -297 -143 -32 -277 66 -290 212 -18 192 169 320 345 237z"/>
<path d="M3975 2037 c-101 -27 -174 -86 -221 -183 -26 -53 -29 -69 -29 -155 0 -88 2 -100 34 -161 83 -165 291 -233 469 -153 63 28 139 96 127 114 -3 6 -23 20 -44 31 l-38 19 -28 -29 c-43 -45 -84 -60 -167 -60 -85 0 -137 20 -185 71 -31 33 -53 76 -53 105 0 12 44 14 281 14 l282 0 -5 71 c-10 138 -108 277 -218 309 -59 17 -152 20 -205 7z m200 -120 c48 -27 93 -89 102 -140 l6 -37 -222 0 -221 0 0 23 c2 72 83 154 175 178 44 11 114 0 160 -24z"/>
<path d="M640 1700 l0 -330 60 0 60 0 0 330 0 330 -60 0 -60 0 0 -330z"/>
</g>
</svg>